# xmcd
#
# Track frame offsets:
#	150
#	18779
#	36375
#	50211
#	63083
#	76857
#	95519
#	112549
#	126428
#	144361
#	159116
#	176600
#	192288
#	204392
#	218083
#	231577
#
# Disc length: 3316 seconds
#
# Revision: 0
# Processed by: cddbd v1.5.2PL0 Copyright (c) Steve Scherf et al.
# Submitted via: audiograbber 1.83.01
#
DISCID=d20cf210
DTITLE=Heino - Star Edition
DYEAR=1900
DGENRE=Schlager
TTITLE0=Blau Blüht Der Enzian
TTITLE1=Die Schwarze Barbara
TTITLE2=Griechischer Wein
TTITLE3=Caramba, Caracho, Ein Whisky
TTITLE4=Wir Lagen Vor Madagaskar
TTITLE5=Tampico
TTITLE6=Capri-Fischer
TTITLE7=Lieder Der Berge
TTITLE8=La Montanara
TTITLE9=Sierra Madre
TTITLE10=Laßt Uns Unsere Alten Lieder
TTITLE11=La Paloma
TTITLE12=So Ein Tag, So Wunderschön Wie Heute
TTITLE13=Schneewalzer
TTITLE14=Treue Bergvagabunden
TTITLE15=Ich Sag, Auf Wiedersehn'
EXTD=
EXTT0=
EXTT1=
EXTT2=
EXTT3=
EXTT4=
EXTT5=
EXTT6=
EXTT7=
EXTT8=
EXTT9=
EXTT10=
EXTT11=
EXTT12=
EXTT13=
EXTT14=
EXTT15=
PLAYORDER=
